inDegrees=yes
name=ik_tiny_file
DataType=double
version=3
OpenSimVersion=4.4-2022-07-23-0e9fedc
endheader
time	pelvis_tilt	pelvis_list	pelvis_rotation	pelvis_tx	pelvis_ty	pelvis_tz	hip_flexion_r	hip_adduction_r	hip_rotation_r	knee_angle_r	knee_angle_r_beta	ankle_angle_r	subtalar_angle_r	mtp_angle_r	hip_flexion_l	hip_adduction_l	hip_rotation_l	knee_angle_l	knee_angle_l_beta	ankle_angle_l	subtalar_angle_l	mtp_angle_l	lumbar_extension	lumbar_bending	lumbar_rotation	arm_flex_r	arm_add_r	arm_rot_r	elbow_flex_r	pro_sup_r	wrist_flex_r	wrist_dev_r	arm_flex_l	arm_add_l	arm_rot_l	elbow_flex_l	pro_sup_l	wrist_flex_l	wrist_dev_l
1.73	-177.0514946264948	-32.09369873766848	-38.58637996791209	0	0.9399999999999999	0	22.75198712952049	-8.963694458928853	0	43.44730063353488	0.758298447159002	-2.747193443096888	0	0	22.75198712952049	-8.963694458928853	0	43.44730063353488	0.758298447159002	-2.747193443096888	0	0	35.23641160875712	41.46140433781691	61.87489299520459	89.99103873042941	89.99742686955364	89.99103742191222	23.79749527717195	44.80866714312595	0	5.381012610006776	89.99413038358034	48.03090011932077	-0.9808752944019873	36.96296512389879	44.80866714312595	0	5.381012610006776
1.77	-177.086350907408	-32.0884534967438	-38.58578411789397	0	0.9399999999999999	0	22.7603563218839	-8.96494206521767	0	43.45211242464647	0.7583824287568174	-2.748267625365665	0	0	22.7603563218839	-8.96494206521767	0	43.45211242464647	0.7583824287568174	-2.748267625365665	0	0	35.30444422725102	41.43449503815445	61.85206651484693	89.99104713226841	89.99742655792483	89.99104588183141	23.80432755646293	44.80884913347915	0	5.380198853053161	89.9941327685613	48.03917149100933	-0.9784122403867272	36.94931621623984	44.80884913347915	0	5.380198853053161
1.8	-177.1216210538497	-32.08595810065862	-38.58394811258361	0	0.9399999999999999	0	22.76876931876195	-8.966195272180787	0	43.45694985726009	0.7584668578832684	-2.749347400497351	0	0	22.76876931876195	-8.966195272180787	0	43.45694985726009	0.7584668578832684	-2.749347400497351	0	0	35.34990692732985	41.39470462216244	61.84457195283906	89.99106589255079	89.99742637935785	89.99106459318547	23.81815957105241	44.8090319867215	0	5.379382198484723	89.99413241217793	48.06788280245883	-0.9583378273061106	36.95229225899988	44.8090319867215	0	5.379382198484723
1.83	-177.1444330342339	-32.09094631665941	-38.58190790728693	0	0.9399999999999999	0	22.77699367192536	-8.96741939352721	0	43.46167957116286	0.7585494069635491	-2.750402924982449	0	0	22.77699367192536	-8.96741939352721	0	43.46167957116286	0.7585494069635491	-2.750402924982449	0	0	35.38266313856278	41.36675819772709	61.84022660308884	89.9910758865739	89.99742638646298	89.99107452557341	23.82681895395244	44.80921064325079	0	5.378585256253325	89.99413435911862	48.08585985200873	-0.9487299531517795	36.95694271138466	44.80921064325079	0	5.378585256253325
1.87	-177.1754441454541	-32.08687379465736	-38.57792132399599	0	0.9399999999999999	0	22.78527718159806	-8.968651418671737	0	43.46644374295629	0.758632557447475	-2.751466013036855	0	0	22.78527718159806	-8.968651418671737	0	43.46644374295629	0.758632557447475	-2.751466013036855	0	0	35.43100692443065	41.34355533964921	61.83312043534465	89.99108110227272	89.99742664055189	89.99107980976287	23.82378609968683	44.80939049786707	0	5.377783900018542	89.99413764651261	48.09997283303284	-0.9489343227929767	36.95314340477231	44.80939049786707	0	5.377783900018542
1.9	-177.2046988950604	-32.08664045280994	-38.57922421044205	0	0.9399999999999999	0	22.79347580565497	-8.969869893297902	0	43.47115965776297	0.7587148656880951	-2.752518174226236	0	0	22.79347580565497	-8.969869893297902	0	43.47115965776297	0.7587148656880951	-2.752518174226236	0	0	35.46749802708113	41.31939985630731	61.82799714054799	89.99108765491242	89.99742673448333	89.99108631991047	23.83266997836552	44.80956841942717	0	5.376992090352712	89.99414070008996	48.11092748550843	-0.9408142555575564	36.95604121608727	44.80956841942717	0	5.376992090352712
1.93	-177.233541408308	-32.08304930550585	-38.5802709691475	0	0.9399999999999999	0	22.8018291279722	-8.971110468302744	0	43.47596492194344	0.7587987333694726	-2.753590161834052	0	0	22.8018291279722	-8.971110468302744	0	43.47596492194344	0.7587987333694726	-2.753590161834052	0	0	35.50626786139853	41.29361230920574	61.82614818788264	89.99110020258139	89.997426619349	89.9910989202278	23.83781222598591	44.80974961252686	0	5.376186651174699	89.9941415342372	48.1291952428391	-0.9323866935332473	36.95646848751399	44.80974961252686	0	5.376186651174699
1.97	-177.2618232564413	-32.08035320074654	-38.57881895883084	0	0.9399999999999999	0	22.81021071429184	-8.972354300332309	0	43.48078695525982	0.7588828937274843	-2.754665744816603	0	0	22.81021071429184	-8.972354300332309	0	43.48078695525982	0.7588828937274843	-2.754665744816603	0	0	35.55269696495869	41.27172257541654	61.81785327978208	89.99110894547402	89.99742663109866	89.99110768987852	23.83912708578953	44.80993132754534	0	5.375379850530934	89.99414211619856	48.14741861292762	-0.9264065882399848	36.95756075025844	44.80993132754534	0	5.375379850530934
2	-177.2905577130155	-32.07718854454667	-38.58100165105021	0	0.9399999999999999	0	22.81844527509853	-8.973575348625124	0	43.48552508138299	0.7589655896287083	-2.755722423338629	0	0	22.81844527509853	-8.973575348625124	0	43.48552508138299	0.7589655896287083	-2.755722423338629	0	0	35.60436590105335	41.25103350468559	61.80014616544585	89.99111689920552	89.99742633486436	89.9911156215346	23.84405669171182	44.81010976054739	0	5.374588576636514	89.99414478956213	48.14875809305391	-0.9236833880473425	36.95045627962692	44.81010976054739	0	5.374588576636514
2.03	-177.314876245974	-32.07172553202842	-38.5820115290518	0	0.9399999999999999	0	22.82694991009542	-8.974835557339963	0	43.49041887416857	0.759051002425727	-2.756813734404111	0	0	22.82694991009542	-8.974835557339963	0	43.49041887416857	0.759051002425727	-2.756813734404111	0	0	35.64800134292207	41.21927457412799	61.79187132330711	89.99113588843804	89.99742606365909	89.99113465802313	23.85428303606636	44.81029396094011	0	5.3737726674056	89.99414421730766	48.1698554830111	-0.9027274705872492	36.94476653190885	44.81029396094011	0	5.3737726674056
2.07	-177.3315093415069	-32.08093465479085	-38.57900639883317	0	0.9399999999999999	0	22.8354233896893	-8.976090184124274	0	43.4952952759437	0.7591361116923531	-2.757901014338994	0	0	22.8354233896893	-8.976090184124274	0	43.4952952759437	0.7591361116923531	-2.757901014338994	0	0	35.65888779219356	41.19940861982342	61.79693029598149	89.99114141907719	89.99742643078132	89.99114013202941	23.85547455633581	44.81047739281889	0	5.372961140944407	89.99414418698905	48.19834669229699	-0.8872771680967056	36.95322824719847	44.81047739281889	0	5.372961140944407
2.1	-177.3381007027721	-32.07768781330822	-38.56883518719403	0	0.9399999999999999	0	22.84634124509727	-8.977706002116916	0	43.50157672830773	0.7592457437179125	-2.759301979681428	0	0	22.84634124509727	-8.977706002116916	0	43.50157672830773	0.7592457437179125	-2.759301979681428	0	0	35.67401883947722	41.18726078073959	61.80874784299341	89.99115022012363	89.99742680133657	89.99114928308795	23.8432122819424	44.81071368051585	0	5.371916887288862	89.99414462470047	48.21700908971265	-0.8962693536409038	36.94293970675996	44.81071368051585	0	5.371916887288862
2.13	-177.3707011604507	-32.08043590682259	-38.57839662721084	0	0.9399999999999999	0	22.8568836883977	-8.979264712082264	0	43.50764312619415	0.7593516223347666	-2.760654716618784	0	0	22.8568836883977	-8.979264712082264	0	43.50764312619415	0.7593516223347666	-2.760654716618784	0	0	35.7092632142511	41.17716180041327	61.7990626401123	89.99116238403398	89.99742659384739	89.99116146034817	23.85291991858095	44.81094169262052	0	5.370910759331964	89.99414612152243	48.22422505898996	-0.8919343035011986	36.94552111048313	44.81094169262052	0	5.370910759331964
2.17	-177.4020190942425	-32.08585701426083	-38.58565724118736	0	0.9399999999999999	0	22.86501973535398	-8.980466044845786	0	43.51232743563004	0.7594333789576052	-2.76169857576473	0	0	22.86501973535398	-8.980466044845786	0	43.51232743563004	0.7594333789576052	-2.76169857576473	0	0	35.72725114588663	41.15943763302958	61.79372668411095	89.99115981605264	89.99742674592535	89.99115848897485	23.86604121646296	44.81111749469674	0	5.370136312755902	89.99414902948116	48.22928799031894	-0.885079128112997	36.97119422164359	44.81111749469674	0	5.370136312755902
2.2	-177.4219430636896	-32.08084006055685	-38.58445499416392	0	0.9399999999999999	0	22.87327712192271	-8.981684381708082	0	43.51708212126925	0.7595163638769068	-2.762757970711379	0	0	22.87327712192271	-8.981684381708082	0	43.51708212126925	0.7595163638769068	-2.762757970711379	0	0	35.75792427446024	41.14587439980444	61.79423907720143	89.9911562953672	89.99742692074511	89.99115503697693	23.86361604230972	44.8112958299033	0	5.369351626556888	89.99415092565329	48.23610024796413	-0.8915603291477182	36.96494402373899	44.8112958299033	0	5.369351626556888
2.23	-177.4373260740751	-32.06963526162183	-38.57879026984206	0	0.9399999999999999	0	22.88465468141779	-8.983362513186052	0	43.52363089652275	0.7596306615670534	-2.764217734759741	0	0	22.88465468141779	-8.983362513186052	0	43.52363089652275	0.7596306615670534	-2.764217734759741	0	0	35.79827832096775	41.13097456886948	61.78830725494124	89.99117613587579	89.99742647889984	89.99117515429904	23.86443653483376	44.81154151252157	0	5.36827168735789	89.99415057169867	48.25225981035256	-0.8864191900160392	36.94206276929467	44.81154151252157	0	5.36827168735789
2.27	-177.4567055716677	-32.0670750487609	-38.58126831643072	0	0.9399999999999999	0	22.89521226297732	-8.984917979451376	0	43.52970920224466	0.7597367480148436	-2.765572217790032	0	0	22.89521226297732	-8.984917979451376	0	43.52970920224466	0.7597367480148436	-2.765572217790032	0	0	35.82865950258971	41.10407495418649	61.78150260467692	89.99119463047538	89.99742607610831	89.99119370269416	23.88215800272129	44.81176931814794	0	5.367271969003125	89.99415025817196	48.26255617187012	-0.8741159931728399	36.95259189531376	44.81176931814794	0	5.367271969003125
2.3	-177.4863172914646	-32.06884969083934	-38.58872673616176	0	0.9399999999999999	0	22.90330548204863	-8.986108807266884	0	43.53437123942214	0.7598181159134408	-2.766610432909497	0	0	22.90330548204863	-8.986108807266884	0	43.53437123942214	0.7598181159134408	-2.766610432909497	0	0	35.84842062527059	41.08779209910166	61.783745011106	89.99118445986718	89.99742651044905	89.9911831358704	23.88410833078636	44.81194378770519	0	5.366507589464274	89.99415324627775	48.26978268608269	-0.8687910982547618	36.97789601585387	44.81194378770519	0	5.366507589464274
2.33	-177.4867569066051	-32.07358961211114	-38.58796937340315	0	0.9399999999999999	0	22.91153613944203	-8.987318947589026	0	43.53911297790174	0.7599008748621784	-2.767666245891382	0	0	22.91153613944203	-8.987318947589026	0	43.53911297790174	0.7599008748621784	-2.767666245891382	0	0	35.85559460814248	41.07574958074846	61.79502919418099	89.99118192616503	89.99742673096952	89.99118062175528	23.87440192424435	44.81212113134206	0	5.365731527934979	89.99415510137834	48.2777824781326	-0.8660883811764516	36.95900001920261	44.81212113134206	0	5.365731527934979
